Coordinates
version=1
nRows=26
nColumns=24
inDegrees=yes

Units are S.I. units (second, meters, Newtons, ...)
Angles are in degrees.

endheader
time	pelvis_tilt	pelvis_list	pelvis_rotation	pelvis_tx	pelvis_ty	pelvis_tz	hip_flexion_r	hip_adduction_r	hip_rotation_r	knee_angle_r	ankle_angle_r	subtalar_angle_r	mtp_angle_r	hip_flexion_l	hip_adduction_l	hip_rotation_l	knee_angle_l	ankle_angle_l	subtalar_angle_l	mtp_angle_l	lumbar_extension	lumbar_bending	lumbar_rotation
      4.89500000	     -4.05903277	      0.54068365	      4.75656982	     -1.86111546	     -0.02794608	     -0.33178997	     28.55423576	     -0.62458119	    -11.24362042	    -11.05347561	     -2.04402143	      1.98244864	     17.38823516	    -14.30024685	      1.98629305	     -6.68464345	    -16.21817048	      9.79290801	     13.38767129	      5.81599871	     -3.36195812	      0.14757404	     -8.20467449
      4.90000000	     -4.09793285	      0.33557715	      4.73995646	     -1.85263582	     -0.02873163	     -0.33125421	     28.57861222	     -0.25265100	    -10.58589251	    -11.84571543	     -2.77769332	      0.79270000	     16.97680047	    -14.13501382	      1.46713880	     -7.35539351	    -17.24484518	      8.48212622	     14.21978300	      9.45361533	     -3.11568426	      0.39239126	     -8.11054467
      4.90500000	     -4.12503843	      0.08660241	      4.66871523	     -1.84418762	     -0.02937964	     -0.33058563	     28.56639551	      0.19057130	     -9.97440543	    -12.54852120	     -3.60914096	     -0.19292934	     16.41714077	    -13.92052691	      0.87834250	     -8.15887489	    -18.34673911	      7.00389810	     15.06684708	     13.21464434	     -2.89520230	      0.67780583	     -7.94380606
      4.91000000	     -4.14875637	     -0.20331482	      4.54676130	     -1.83574518	     -0.02988524	     -0.32980127	     28.50744205	      0.69882836	     -9.40650553	    -13.09412380	     -4.68678825	     -1.11919474	     16.37545009	    -13.65783379	      0.22631516	     -9.04048489	    -19.50999976	      5.37689813	     15.89567581	     17.02669772	     -2.67825842	      1.00336738	     -7.71321558
      4.91500000	     -4.17879989	     -0.53616908	      4.36425183	     -1.82734129	     -0.03023992	     -0.32885533	     28.42476317	      1.28042132	     -8.82928734	    -13.51449257	     -5.92484251	     -2.01825148	     16.64544131	    -13.32726355	     -0.49890609	    -10.03091472	    -20.75041895	      3.58515249	     16.71844024	     20.87685724	     -2.46519607	      1.36268869	     -7.40932893
      4.92000000	     -4.19560366	     -0.92860279	      4.18746340	     -1.81901355	     -0.03039142	     -0.32782175	     28.28627082	      1.93172475	     -8.20202548	    -13.81212473	     -7.28311620	     -3.04644320	     17.02216241	    -12.93728889	     -1.32158164	    -10.98486382	    -22.07950319	      1.64987984	     17.44403291	     24.56085617	     -2.28030745	      1.77601877	     -7.13990406
      4.92500000	     -4.22665829	     -1.34588037	      3.95715001	     -1.81069412	     -0.03040628	     -0.32662785	     28.15708047	      2.63682153	     -7.54686912	    -14.08395964	     -8.58366816	     -4.09119668	     17.34694905	    -12.49494641	     -2.19664624	    -11.95796982	    -23.43977453	     -0.49658605	     18.14964750	     28.22610078	     -2.08704983	      2.20116929	     -6.78699877
      4.93000000	     -4.26800286	     -1.79237866	      3.70880703	     -1.80246797	     -0.03030863	     -0.32535524	     28.05152357	      3.38677986	     -6.84881680	    -14.38588208	     -9.76013361	     -5.23325248	     17.35533918	    -11.98430516	     -3.12225616	    -12.85888978	    -24.86285860	     -2.79865915	     18.73980360	     31.66279135	     -1.90346259	      2.65164390	     -6.38006593
      4.93500000	     -4.32699588	     -2.25486653	      3.45943209	     -1.79427172	     -0.03012975	     -0.32406297	     27.97695594	      4.15890387	     -6.08837452	    -14.75686751	    -10.70004785	     -6.43679900	     16.86600576	    -11.41024061	     -4.07655883	    -13.65433139	    -26.32358089	     -5.26267896	     19.17867108	     34.78271342	     -1.70548496	      3.11602705	     -5.99701454
      4.94000000	     -4.40745231	     -2.72647973	      3.24753766	     -1.78612158	     -0.02991209	     -0.32280801	     27.95035159	      4.92813887	     -5.29161110	    -15.24497906	    -11.27853416	     -7.63372435	     15.69442039	    -10.76309444	     -5.05066122	    -14.27562054	    -27.81006469	     -7.90145619	     19.46034446	     37.67419293	     -1.49752189	      3.58691282	     -5.72695504
      4.94500000	     -4.49995521	     -3.15766771	      3.02370729	     -1.77807269	     -0.02969194	     -0.32154781	     27.98635851	      5.67253188	     -4.49908841	    -15.88521266	    -11.52902000	     -8.88489729	     13.76836026	    -10.06798426	     -5.96839512	    -14.74284887	    -29.30958822	    -10.64210439	     19.57760291	     40.01784607	     -1.29860058	      4.01485070	     -5.36929703
      4.95000000	     -4.68605575	     -3.57302651	      2.72226660	     -1.76995927	     -0.02965328	     -0.32027411	     28.15102503	      6.43624942	     -3.55214198	    -16.64855086	    -11.53926680	    -10.11795466	     11.77887680	     -9.24938529	     -6.84999749	    -15.18244038	    -30.88382329	    -13.29636536	     19.60973602	     41.26478761	     -0.98968738	      4.43246989	     -4.97250314
      4.95500000	     -4.76972676	     -3.90611935	      2.64283956	     -1.76215732	     -0.02945409	     -0.31921900	     28.25984271	      7.03835282	     -2.84404823	    -17.59348566	    -10.85489210	    -11.14589139	      7.85236231	     -8.44241867	     -7.64843583	    -15.22042056	    -32.41566796	    -16.21892668	     19.31514251	     42.83967529	     -0.82905225	      4.75146234	     -4.80139893
      4.96000000	     -4.92706980	     -4.23957600	      2.55312821	     -1.75426043	     -0.02944111	     -0.31828926	     28.44279475	      7.64086560	     -2.09345458	    -18.57737047	     -9.97181317	    -12.06359970	      4.02381918	     -7.50638636	     -8.42240866	    -15.18558993	    -34.07406634	    -18.81109546	     18.94138532	     42.79208352	     -0.56921498	      5.08297197	     -4.69124838
      4.96500000	     -5.18486192	     -4.56178420	      2.45456263	     -1.74632125	     -0.02965232	     -0.31747538	     28.70680475	      8.21706135	     -1.42987679	    -19.46641990	     -9.57255730	    -13.21366703	      2.15662792	     -6.41572706	     -9.16367075	    -15.11279210	    -35.80399679	    -21.23400862	     18.37859507	     42.15839647	     -0.19007241	      5.41388082	     -4.49617708
      4.97000000	     -5.22406616	     -4.73417950	      2.48442864	     -1.73868966	     -0.02960215	     -0.31684162	     28.76079962	      8.61071163	     -0.82730372	    -20.51479549	     -8.10505603	    -13.71828415	     -2.32751933	     -5.48311963	     -9.71056763	    -14.81090314	    -37.54304765	    -23.50453654	     17.53704736	     40.38579836	     -0.08622211	      5.58397698	     -4.48333658
      4.97500000	     -5.29359039	     -4.99026235	      2.51541761	     -1.73095035	     -0.02968354	     -0.31626092	     28.76832662	      9.08380023	     -0.28248996	    -21.36570075	     -7.15065964	    -14.47638667	     -5.11527668	     -4.48566842	    -10.35155707	    -14.56207879	    -39.32614839	    -25.55604961	     16.51547834	     38.50962283	      0.07466700	      5.84397815	     -4.44979880
      4.98000000	     -5.56375510	     -5.13039209	      2.46135657	     -1.72331925	     -0.03005873	     -0.31567988	     28.97575779	      9.43699374	      0.27919547	    -22.17747071	     -6.46253064	    -15.12646560	     -6.17434864	     -3.23206252	    -10.82796254	    -14.37214401	    -41.17481045	    -27.34239427	     15.16899688	     36.24029220	      0.42847546	      5.98611275	     -4.31847502
      4.98500000	     -5.59765498	     -5.28584517	      2.52047134	     -1.71583058	     -0.03010494	     -0.31532869	     28.86083414	      9.74634721	      0.63778197	    -22.86871827	     -5.52460635	    -15.52294573	     -7.68308983	     -2.16232966	    -11.30207851	    -14.05409275	    -43.08271704	    -28.59770221	     13.74523287	     32.41767348	      0.51812495	      6.15248940	     -4.31430309
      4.99000000	     -5.64096111	     -5.46859439	      2.55268874	     -1.70839489	     -0.03013528	     -0.31498975	     28.69678581	     10.06582286	      0.88669565	    -23.44024989	     -4.59238894	    -15.73648438	     -8.84237563	     -1.06618173	    -11.79509228	    -13.79488426	    -44.98196470	    -29.52835928	     12.15486830	     28.61666002	      0.61642547	      6.35089821	     -4.24664349
      4.99500000	     -5.63555437	     -5.68042109	      2.58917640	     -1.70106613	     -0.03002554	     -0.31469681	     28.41101070	     10.38110869	      0.98848014	    -23.85766750	     -3.71321289	    -15.79911161	     -9.57032935	      0.00397936	    -12.30402229	    -13.53618834	    -46.87203108	    -30.02820440	     10.49968952	     24.45489525	      0.64908199	      6.58283206	     -4.15467650
      5.00000000	     -5.63426789	     -5.90036731	      2.60868425	     -1.69383372	     -0.02979562	     -0.31441954	     28.05773289	     10.67582063	      0.99404301	    -24.12124798	     -2.91564234	    -15.69929979	     -9.78006530	      1.08873250	    -12.80304092	    -13.29819788	    -48.71931432	    -30.11942573	      8.82898432	     20.20690680	      0.67478442	      6.82408705	     -4.05642698
      5.00500000	     -5.60032112	     -6.13271267	      2.62626573	     -1.68671060	     -0.02940567	     -0.31419650	     27.60540674	     10.94729914	      0.88233134	    -24.24385563	     -2.19664873	    -15.43490366	     -9.43674673	      2.14390168	    -13.28322931	    -13.04618558	    -50.50613334	    -29.74767550	      7.18385102	     15.89041382	      0.65416077	      7.08470257	     -3.94244138
      5.01000000	     -5.54988457	     -6.34833207	      2.63320759	     -1.67970637	     -0.02882972	     -0.31398839	     27.07137999	     11.17285172	      0.66507348	    -24.22026182	     -1.60796629	    -15.05989199	     -8.53230177	      3.17130192	    -13.71821186	    -12.80363472	    -52.18760207	    -29.01753900	      5.61246918	     11.82636824	      0.59584942	      7.32854323	     -3.79188193
      5.01500000	     -5.48296563	     -6.53308879	      2.57050446	     -1.67279453	     -0.02806289	     -0.31363132	     26.44767442	     11.39684952	      0.48385240	    -24.03175852	     -1.38183026	    -14.86893208	     -6.94034745	      4.14258614	    -14.10691776	    -12.64387942	    -53.75594154	    -27.87257089	      4.16129169	      7.65842529	      0.50386806	      7.52905888	     -3.52028592
      5.02000000	     -5.42013061	     -6.65676292	      2.55834911	     -1.66595622	     -0.02711626	     -0.31345856	     25.78544971	     11.48778771	      0.14762757	    -23.75786003	     -1.12361090	    -14.41552663	     -4.86586645	      5.11466397	    -14.36903245	    -12.39802958	    -55.16761173	    -26.58288901	      2.76697092	      4.15005288	      0.41325489	      7.68207945	     -3.31569558
